<?xml version="1.0" encoding="UTF-8"?>
<!DOCTYPE svg PUBLIC "-//W3C//DTD SVG 1.1//EN" "http://www.w3.org/Graphics/SVG/1.1/DTD/svg11.dtd">
<svg xmlns="http://www.w3.org/2000/svg" version="1.1" width="832px" height="724px" style="shape-rendering:geometricPrecision; text-rendering:geometricPrecision; image-rendering:optimizeQuality; fill-rule:evenodd; clip-rule:evenodd" xmlns:xlink="http://www.w3.org/1999/xlink">
<g><path style="opacity:1" fill="#02adef" d="M 260.5,12.5 C 290.872,11.49 320.872,14.3233 350.5,21C 351.022,21.5613 351.355,22.228 351.5,23C 332.262,93.7871 313.262,164.62 294.5,235.5C 277.308,233.099 260.642,235.099 244.5,241.5C 243.914,241.291 243.414,240.957 243,240.5C 213.441,173.049 183.608,105.716 153.5,38.5C 176.162,28.2256 199.829,21.0589 224.5,17C 236.618,15.2297 248.618,13.7297 260.5,12.5 Z"/></g>
<g><path style="opacity:1" fill="#8dc73e" d="M 171.5,112.5 C 172.5,112.5 173.5,112.5 174.5,112.5C 193.543,156.923 212.876,201.256 232.5,245.5C 232.392,246.442 232.059,247.275 231.5,248C 217.907,255.794 206.907,266.294 198.5,279.5C 154.158,257.496 110.158,235.33 66.5,213C 91.6144,169.05 126.614,135.55 171.5,112.5 Z"/></g>
<g><path style="opacity:1" fill="#0e9544" d="M 505.5,175.5 C 506.496,175.414 507.329,175.748 508,176.5C 541.308,227.086 556.475,282.419 553.5,342.5C 494.905,338.685 436.238,334.352 377.5,329.5C 377.194,309.416 371.194,291.249 359.5,275C 408.406,242.058 457.073,208.891 505.5,175.5 Z"/></g>
<g><path style="opacity:1" fill="#129646" d="M 242.5,258.5 C 246.255,259.473 248.255,261.973 248.5,266C 242.89,279.274 239.557,293.108 238.5,307.5C 239.224,329.478 250.224,342.978 271.5,348C 282.911,349.64 292.911,346.64 301.5,339C 308.091,332.413 313.924,325.247 319,317.5C 325.634,305.916 331.301,293.916 336,281.5C 340.564,277.157 344.564,277.491 348,282.5C 348.087,288.642 347.087,294.642 345,300.5C 335.913,329.019 321.913,354.685 303,377.5C 301.964,381.623 301.13,385.79 300.5,390C 302.024,397.1 302.524,404.267 302,411.5C 283.479,417.187 265.312,416.02 247.5,408C 248.905,392.794 245.072,378.96 236,366.5C 224.229,354.106 218.395,339.273 218.5,322C 219.568,303.564 223.401,285.73 230,268.5C 232.918,263.396 237.085,260.063 242.5,258.5 Z"/></g>
<g><path style="opacity:1" fill="#04adef" d="M 137.5,262.5 C 155.601,271.05 173.601,279.884 191.5,289C 192.022,289.561 192.355,290.228 192.5,291C 186.165,306.174 182.832,322.007 182.5,338.5C 163.235,343.483 143.902,348.15 124.5,352.5C 120.396,321.562 124.729,291.562 137.5,262.5 Z"/></g>
<g><path style="opacity:1" fill="#139646" d="M 269.5,285.5 C 289.093,283.608 300.427,292.275 303.5,311.5C 300.444,330.875 289.111,339.375 269.5,337C 250.351,329.536 244.851,316.369 253,297.5C 257.279,291.707 262.779,287.707 269.5,285.5 Z"/></g>
<g><path style="opacity:1" fill="#01adef" d="M 377.5,340.5 C 449.457,346.574 521.457,352.24 593.5,357.5C 586.298,434.556 555.465,500.223 501,554.5C 451.282,502.238 401.449,450.071 351.5,398C 366.237,381.685 374.904,362.518 377.5,340.5 Z"/></g>
<g><path style="opacity:1" fill="#0e9544" d="M 184.5,349.5 C 189.123,367.411 197.456,383.411 209.5,397.5C 172.524,444.977 135.357,492.31 98,539.5C 52.6023,500.226 23.1023,451.226 9.5,392.5C 68.0564,378.61 126.39,364.277 184.5,349.5 Z"/></g>
<g><path style="opacity:1" fill="#d7df23" d="M 341.5,406.5 C 345.302,407.779 348.469,410.112 351,413.5C 365.384,429.095 379.884,444.595 394.5,460C 366.132,485.633 332.799,500.133 294.5,503.5C 292.441,478.514 291.441,453.514 291.5,428.5C 310.448,426.019 327.114,418.686 341.5,406.5 Z"/></g>
<g><path style="opacity:1" fill="#15afef" d="M 417.5,567.5 C 406.85,562.509 396.183,557.509 385.5,552.5C 375.483,557.176 365.483,561.842 355.5,566.5C 365.468,556.7 375.635,547.033 386,537.5C 396.698,547.367 407.198,557.367 417.5,567.5 Z"/></g>
<g><path style="opacity:1" fill="#0ab1f0" d="M 355.5,566.5 C 354.833,567.167 354.833,567.167 355.5,566.5 Z"/></g>
<g><path style="opacity:1" fill="#6ed1f6" d="M 354.5,567.5 C 353.833,568.167 353.833,568.167 354.5,567.5 Z"/></g>
<g><path style="opacity:1" fill="#55c9f5" d="M 417.5,567.5 C 418.833,568.167 418.833,568.167 417.5,567.5 Z"/></g>
<g><path style="opacity:1" fill="#09aeef" d="M 149.5,570.5 C 158.253,569.847 166.586,571.347 174.5,575C 179.379,578.577 182.379,583.41 183.5,589.5C 179.87,591.043 176.037,591.709 172,591.5C 166.447,592.48 162.78,590.48 161,585.5C 156.333,582.833 151.667,582.833 147,585.5C 146.104,588.025 146.604,590.192 148.5,592C 156.574,594.019 164.574,596.353 172.5,599C 185.688,605.903 188.855,616.07 182,629.5C 175.057,637.824 166.057,641.49 155,640.5C 146.105,641.058 138.105,638.725 131,633.5C 126.725,628.676 124.892,623.176 125.5,617C 131.416,616.81 137.249,616.31 143,615.5C 144.327,618.131 145.66,620.798 147,623.5C 153.457,629.094 159.457,628.761 165,622.5C 165.755,619.503 164.922,617.003 162.5,615C 155.936,612.692 149.27,610.692 142.5,609C 128.26,603.702 124.094,594.202 130,580.5C 135.163,574.336 141.663,571.003 149.5,570.5 Z"/></g>
<g><path style="opacity:1" fill="#07adef" d="M 222.5,570.5 C 252.318,569.484 265.818,583.817 263,613.5C 260.914,628.506 252.414,637.339 237.5,640C 206.673,643.172 192.173,629.339 194,598.5C 196.798,582.201 206.298,572.867 222.5,570.5 Z M 224.5,586.5 C 233.576,585.086 239.409,588.752 242,597.5C 242.829,604.234 242.496,610.901 241,617.5C 236.983,624.138 231.15,626.304 223.5,624C 219.667,622.833 217.167,620.333 216,616.5C 214,609.167 214,601.833 216,594.5C 218.098,590.897 220.932,588.23 224.5,586.5 Z"/></g>
<g><path style="opacity:1" fill="#0eaeef" d="M 302.5,570.5 C 310.637,570.152 318.637,570.986 326.5,573C 334.247,576.357 338.247,582.024 338.5,590C 332.631,591.006 326.797,592.173 321,593.5C 317.332,587.084 311.832,584.584 304.5,586C 298.59,587.579 295.09,591.412 294,597.5C 292.928,605.029 293.595,612.362 296,619.5C 302.054,625.64 309.22,627.14 317.5,624C 322.056,622.519 323.723,619.352 322.5,614.5C 317.833,614.5 313.167,614.5 308.5,614.5C 308.2,609.901 308.533,605.401 309.5,601C 319.833,600.333 330.167,600.333 340.5,601C 341.651,610.422 341.818,619.922 341,629.5C 327.043,639.801 311.543,642.968 294.5,639C 282.721,634.887 275.554,626.72 273,614.5C 270.767,602.445 273.1,591.445 280,581.5C 286.341,575.245 293.841,571.578 302.5,570.5 Z"/></g>
<g><path style="opacity:1" fill="#09adef" d="M 380.5,570.5 C 410.814,570.319 423.981,585.319 420,615.5C 417.059,629.441 408.559,637.608 394.5,640C 367.444,643.999 352.777,632.499 350.5,605.5C 351.297,585.717 361.297,574.05 380.5,570.5 Z M 381.5,586.5 C 394.499,585.664 400.832,591.831 400.5,605C 400.069,610.029 398.902,614.863 397,619.5C 392.509,624.259 387.009,625.759 380.5,624C 373.906,619.929 370.906,613.929 371.5,606C 370.802,597.224 374.135,590.724 381.5,586.5 Z"/></g>
<g><path style="opacity:1" fill="#56b57d" d="M 752.5,572.5 C 770.993,571.503 789.659,571.17 808.5,571.5C 808.5,576.5 808.5,581.5 808.5,586.5C 796.833,586.5 785.167,586.5 773.5,586.5C 784.654,585.505 795.988,585.172 807.5,585.5C 807.5,581.167 807.5,576.833 807.5,572.5C 789.167,572.5 770.833,572.5 752.5,572.5 Z"/></g>
<g><path style="opacity:1" fill="#0eaeef" d="M 55.5,571.5 C 76.5,571.5 97.5,571.5 118.5,571.5C 118.5,577.167 118.5,582.833 118.5,588.5C 111.5,588.5 104.5,588.5 97.5,588.5C 97.5,605.5 97.5,622.5 97.5,639.5C 90.5,639.5 83.5,639.5 76.5,639.5C 76.5,622.5 76.5,605.5 76.5,588.5C 69.1591,588.666 61.8258,588.5 54.5,588C 54.4463,582.595 54.7796,577.095 55.5,571.5 Z"/></g>
<g><path style="opacity:1" fill="#119645" d="M 460.5,572.5 C 467.167,572.5 473.833,572.5 480.5,572.5C 480.5,587.5 480.5,602.5 480.5,617.5C 480.093,629.482 474.093,636.982 462.5,640C 455.433,640.839 448.433,640.506 441.5,639C 432.46,634.783 427.46,627.616 426.5,617.5C 432.933,615.749 439.433,614.415 446,613.5C 447.092,616.044 447.759,618.711 448,621.5C 451.182,625.057 454.682,625.391 458.5,622.5C 459.154,620.885 459.654,619.218 460,617.5C 460.5,602.504 460.667,587.504 460.5,572.5 Z"/></g>
<g><path style="opacity:1" fill="#159647" d="M 514.5,607.5 C 515.301,609.793 515.968,609.46 516.5,606.5C 519.184,595.1 522.184,583.767 525.5,572.5C 532.167,571.167 538.833,571.167 545.5,572.5C 548.999,584.494 552.499,596.494 556,608.5C 558.205,596.476 560.538,584.476 563,572.5C 569.41,571.522 575.91,571.189 582.5,571.5C 577.834,594.163 573.168,616.829 568.5,639.5C 561.245,639.813 554.079,639.48 547,638.5C 543.333,625.167 539.667,611.833 536,598.5C 531.615,611.659 527.615,624.993 524,638.5C 517.248,639.645 510.414,639.811 503.5,639C 497.929,616.649 492.929,594.149 488.5,571.5C 495.09,571.189 501.59,571.522 508,572.5C 510.599,584.098 512.766,595.765 514.5,607.5 Z"/></g>
<g><path style="opacity:1" fill="#149647" d="M 608.5,571.5 C 616.167,571.5 623.833,571.5 631.5,571.5C 639.233,594.03 647.566,616.363 656.5,638.5C 649.167,639.833 641.833,639.833 634.5,638.5C 633.091,635.273 632.091,631.94 631.5,628.5C 623.472,628.169 615.472,628.502 607.5,629.5C 606.091,632.727 605.091,636.06 604.5,639.5C 597.5,639.5 590.5,639.5 583.5,639.5C 591.273,616.622 599.606,593.955 608.5,571.5 Z M 618.5,590.5 C 619.117,590.611 619.617,590.944 620,591.5C 622.068,598.536 624.234,605.536 626.5,612.5C 621.88,613.493 617.214,613.827 612.5,613.5C 614.657,605.87 616.657,598.203 618.5,590.5 Z"/></g>
<g><path style="opacity:1" fill="#149646" d="M 722.5,639.5 C 722.667,622.497 722.5,605.497 722,588.5C 720.961,589.244 720.461,590.244 720.5,591.5C 716.829,607.183 712.996,622.85 709,638.5C 703.593,639.473 698.093,639.807 692.5,639.5C 688.99,623.792 685.323,608.126 681.5,592.5C 681.291,591.078 680.791,589.745 680,588.5C 679.5,605.497 679.333,622.497 679.5,639.5C 674.167,639.5 668.833,639.5 663.5,639.5C 663.5,617.167 663.5,594.833 663.5,572.5C 672.5,572.5 681.5,572.5 690.5,572.5C 693.84,585.525 697.34,598.525 701,611.5C 704.346,598.451 707.846,585.451 711.5,572.5C 716,572.167 720.5,571.833 725,571.5C 730.005,571.357 734.839,571.857 739.5,573C 739.113,594.806 739.113,616.473 739.5,638C 734.019,639.449 728.352,639.949 722.5,639.5 Z"/></g>
<g><path style="opacity:1" fill="#139646" d="M 752.5,572.5 C 770.833,572.5 789.167,572.5 807.5,572.5C 807.5,576.833 807.5,581.167 807.5,585.5C 795.988,585.172 784.654,585.505 773.5,586.5C 773.5,589.833 773.5,593.167 773.5,596.5C 784.167,596.5 794.833,596.5 805.5,596.5C 805.5,601.167 805.5,605.833 805.5,610.5C 794.833,610.5 784.167,610.5 773.5,610.5C 773.334,615.179 773.501,619.845 774,624.5C 785.677,623.843 797.51,623.843 809.5,624.5C 809.5,629.5 809.5,634.5 809.5,639.5C 790.5,639.5 771.5,639.5 752.5,639.5C 752.5,617.167 752.5,594.833 752.5,572.5 Z"/></g>
<g><path style="opacity:1" fill="#4eb176" d="M 460.5,572.5 C 467.313,571.509 474.313,571.175 481.5,571.5C 481.83,587.009 481.496,602.342 480.5,617.5C 480.5,602.5 480.5,587.5 480.5,572.5C 473.833,572.5 467.167,572.5 460.5,572.5 Z"/></g>
<g><path style="opacity:1" fill="#5eb983" d="M 690.5,572.5 C 681.5,572.5 672.5,572.5 663.5,572.5C 663.5,594.833 663.5,617.167 663.5,639.5C 662.503,617.006 662.169,594.339 662.5,571.5C 672.015,571.173 681.348,571.506 690.5,572.5 Z"/></g>
<g><path style="opacity:1" fill="#8acca6" d="M 681.5,592.5 C 680.833,608.167 680.167,623.833 679.5,639.5C 679.333,622.497 679.5,605.497 680,588.5C 680.791,589.745 681.291,591.078 681.5,592.5 Z"/></g>
<g><path style="opacity:1" fill="#65bb87" d="M 516.5,606.5 C 515.968,609.46 515.301,609.793 514.5,607.5C 515.167,607.167 515.833,606.833 516.5,606.5 Z"/></g>
<g><path style="opacity:1" fill="#52b37a" d="M 722.5,639.5 C 721.833,623.5 721.167,607.5 720.5,591.5C 720.461,590.244 720.961,589.244 722,588.5C 722.5,605.497 722.667,622.497 722.5,639.5 Z"/></g>
<g><path style="opacity:1" fill="#239a4e" d="M 176.5,688.5 C 172.285,686.564 167.619,685.897 162.5,686.5C 162.5,685.5 162.5,684.5 162.5,683.5C 168.5,683.5 174.5,683.5 180.5,683.5C 180.5,688.5 180.5,693.5 180.5,698.5C 170.789,706.871 160.789,707.371 150.5,700C 142.683,691.031 141.516,681.197 147,670.5C 153.822,662.336 162.322,659.836 172.5,663C 175.916,664.25 178.583,666.417 180.5,669.5C 179.562,670.553 178.395,671.22 177,671.5C 169.87,665.486 162.37,664.986 154.5,670C 148.05,677.247 147.216,685.08 152,693.5C 159.737,702.053 167.904,702.553 176.5,695C 175.402,692.885 175.402,690.718 176.5,688.5 Z"/></g>
<g><path style="opacity:1" fill="#229a4d" d="M 210.5,661.5 C 222.669,660.2 230.835,665.2 235,676.5C 237.788,689.422 233.288,698.589 221.5,704C 208.203,707.105 199.369,702.271 195,689.5C 192.242,675.501 197.409,666.168 210.5,661.5 Z M 210.5,666.5 C 222.458,665.627 229.125,671.127 230.5,683C 229.264,696.918 221.931,702.252 208.5,699C 199.165,691.815 197.332,682.982 203,672.5C 205.114,669.879 207.614,667.879 210.5,666.5 Z"/></g>
<g><path style="opacity:1" fill="#239b4e" d="M 272.5,662.5 C 279.175,662.334 285.842,662.5 292.5,663C 307.85,669.368 312.017,680.201 305,695.5C 301.138,700.036 296.305,702.869 290.5,704C 284.509,704.499 278.509,704.666 272.5,704.5C 272.5,690.5 272.5,676.5 272.5,662.5 Z M 277.5,667.5 C 298.253,665.072 305.753,673.739 300,693.5C 298.442,695.359 296.609,696.859 294.5,698C 288.912,699.289 283.245,699.789 277.5,699.5C 277.5,688.833 277.5,678.167 277.5,667.5 Z"/></g>
<g><path style="opacity:1" fill="#309e54" d="M 323.5,662.5 C 325.167,662.5 326.833,662.5 328.5,662.5C 328.829,676.344 328.496,690.01 327.5,703.5C 326.167,703.5 324.833,703.5 323.5,703.5C 323.5,689.833 323.5,676.167 323.5,662.5 Z"/></g>
<g><path style="opacity:1" fill="#259c50" d="M 359.5,661.5 C 367.715,660.543 374.382,663.209 379.5,669.5C 378.562,670.553 377.395,671.22 376,671.5C 367.337,664.544 359.004,664.877 351,672.5C 345.118,683.47 347.284,692.304 357.5,699C 363.435,701.261 368.935,700.428 374,696.5C 374.498,693.518 374.665,690.518 374.5,687.5C 369.833,687.5 365.167,687.5 360.5,687.5C 360.5,685.833 360.5,684.167 360.5,682.5C 367.167,682.5 373.833,682.5 380.5,682.5C 380.666,687.511 380.499,692.511 380,697.5C 368.718,708.188 357.385,707.854 346,696.5C 338.316,679.898 342.816,668.231 359.5,661.5 Z"/></g>
<g><path style="opacity:1" fill="#289c50" d="M 395.5,662.5 C 397.167,662.5 398.833,662.5 400.5,662.5C 400.829,676.344 400.496,690.01 399.5,703.5C 398.167,703.5 396.833,703.5 395.5,703.5C 395.5,689.833 395.5,676.167 395.5,662.5 Z"/></g>
<g><path style="opacity:1" fill="#22994c" d="M 413.5,662.5 C 423.833,662.5 434.167,662.5 444.5,662.5C 444.5,664.167 444.5,665.833 444.5,667.5C 440.167,667.5 435.833,667.5 431.5,667.5C 431.5,679.833 431.5,692.167 431.5,704.5C 429.833,704.5 428.167,704.5 426.5,704.5C 426.5,692.167 426.5,679.833 426.5,667.5C 422.167,667.5 417.833,667.5 413.5,667.5C 413.5,665.833 413.5,664.167 413.5,662.5 Z"/></g>
<g><path style="opacity:1" fill="#20994c" d="M 488.5,702.5 C 487.081,703.451 485.415,703.784 483.5,703.5C 482.266,700.636 480.932,697.803 479.5,695C 472.833,694.333 466.167,694.333 459.5,695C 458.297,697.905 456.964,700.738 455.5,703.5C 453.585,703.784 451.919,703.451 450.5,702.5C 455.507,689.156 460.507,675.823 465.5,662.5C 468.167,662.5 470.833,662.5 473.5,662.5C 478.5,675.833 483.5,689.167 488.5,702.5 Z M 468.5,669.5 C 469.75,669.577 470.583,670.244 471,671.5C 473.757,677.669 475.923,684.003 477.5,690.5C 472.167,690.5 466.833,690.5 461.5,690.5C 463.636,683.426 465.969,676.426 468.5,669.5 Z"/></g>
<g><path style="opacity:1" fill="#1b9849" d="M 501.5,662.5 C 503.167,662.5 504.833,662.5 506.5,662.5C 506.5,674.833 506.5,687.167 506.5,699.5C 513.175,699.334 519.842,699.5 526.5,700C 526.335,701.117 526.002,702.284 525.5,703.5C 517.528,704.498 509.528,704.831 501.5,704.5C 501.5,690.5 501.5,676.5 501.5,662.5 Z"/></g>
<g><path style="opacity:1" fill="#2b9d52" d="M 561.5,662.5 C 563.5,662.5 565.5,662.5 567.5,662.5C 567.5,668.5 567.5,674.5 567.5,680.5C 575.5,680.5 583.5,680.5 591.5,680.5C 591.5,674.5 591.5,668.5 591.5,662.5C 593.167,662.5 594.833,662.5 596.5,662.5C 596.5,676.5 596.5,690.5 596.5,704.5C 594.833,704.5 593.167,704.5 591.5,704.5C 591.5,698.167 591.5,691.833 591.5,685.5C 583.5,685.5 575.5,685.5 567.5,685.5C 567.666,691.509 567.499,697.509 567,703.5C 565.333,704.833 563.667,704.833 562,703.5C 561.5,689.837 561.333,676.171 561.5,662.5 Z"/></g>
<g><path style="opacity:1" fill="#21994c" d="M 613.5,662.5 C 622.5,662.5 631.5,662.5 640.5,662.5C 640.714,664.144 640.38,665.644 639.5,667C 632.508,667.5 625.508,667.666 618.5,667.5C 618.5,671.833 618.5,676.167 618.5,680.5C 625.5,680.5 632.5,680.5 639.5,680.5C 639.5,681.833 639.5,683.167 639.5,684.5C 632.167,684.5 624.833,684.5 617.5,684.5C 617.179,689.695 617.513,694.695 618.5,699.5C 625.833,699.5 633.167,699.5 640.5,699.5C 640.768,701.099 640.434,702.432 639.5,703.5C 630.833,703.5 622.167,703.5 613.5,703.5C 613.5,689.833 613.5,676.167 613.5,662.5 Z"/></g>
<g><path style="opacity:1" fill="#1f994c" d="M 689.5,702.5 C 688.081,703.451 686.415,703.784 684.5,703.5C 683.07,700.803 681.737,697.969 680.5,695C 673.833,694.333 667.167,694.333 660.5,695C 659.068,697.803 657.734,700.636 656.5,703.5C 654.585,703.784 652.919,703.451 651.5,702.5C 656.036,689.755 660.869,677.088 666,664.5C 668.121,662.543 670.621,662.043 673.5,663C 679.129,676.054 684.462,689.22 689.5,702.5 Z M 669.5,668.5 C 673.553,675.291 676.553,682.624 678.5,690.5C 672.824,690.666 667.157,690.499 661.5,690C 664.86,683.085 667.527,675.918 669.5,668.5 Z"/></g>
<g><path style="opacity:1" fill="#2a9d52" d="M 701.5,663.5 C 703.265,662.539 705.265,662.205 707.5,662.5C 707.5,674.833 707.5,687.167 707.5,699.5C 713.833,699.5 720.167,699.5 726.5,699.5C 726.5,701.167 726.5,702.833 726.5,704.5C 717.996,704.967 709.663,704.467 701.5,703C 701.598,689.715 701.598,676.549 701.5,663.5 Z"/></g>
<g><path style="opacity:1" fill="#22994c" d="M 731.5,662.5 C 741.833,662.5 752.167,662.5 762.5,662.5C 762.5,664.167 762.5,665.833 762.5,667.5C 758.167,667.5 753.833,667.5 749.5,667.5C 749.5,679.833 749.5,692.167 749.5,704.5C 747.833,704.5 746.167,704.5 744.5,704.5C 744.5,692.167 744.5,679.833 744.5,667.5C 740.167,667.5 735.833,667.5 731.5,667.5C 731.5,665.833 731.5,664.167 731.5,662.5 Z"/></g>
<g><path style="opacity:1" fill="#299c51" d="M 781.5,685.5 C 780.51,691.31 780.177,697.31 780.5,703.5C 779.167,703.5 777.833,703.5 776.5,703.5C 775.504,690.01 775.171,676.344 775.5,662.5C 777.5,662.5 779.5,662.5 781.5,662.5C 781.5,668.5 781.5,674.5 781.5,680.5C 789.5,680.5 797.5,680.5 805.5,680.5C 805.5,674.5 805.5,668.5 805.5,662.5C 807.167,662.5 808.833,662.5 810.5,662.5C 810.5,676.5 810.5,690.5 810.5,704.5C 808.833,704.5 807.167,704.5 805.5,704.5C 805.5,698.167 805.5,691.833 805.5,685.5C 797.5,685.5 789.5,685.5 781.5,685.5 Z"/></g>
<g><path style="opacity:1" fill="#47ae70" d="M 323.5,662.5 C 323.5,676.167 323.5,689.833 323.5,703.5C 324.833,703.5 326.167,703.5 327.5,703.5C 326.081,704.451 324.415,704.784 322.5,704.5C 322.171,690.323 322.504,676.323 323.5,662.5 Z"/></g>
<g><path style="opacity:1" fill="#5fb984" d="M 395.5,662.5 C 395.5,676.167 395.5,689.833 395.5,703.5C 396.833,703.5 398.167,703.5 399.5,703.5C 398.081,704.451 396.415,704.784 394.5,704.5C 394.171,690.323 394.504,676.323 395.5,662.5 Z"/></g>
<g><path style="opacity:1" fill="#6fc091" d="M 639.5,684.5 C 632.687,685.491 625.687,685.825 618.5,685.5C 618.5,690.167 618.5,694.833 618.5,699.5C 617.513,694.695 617.179,689.695 617.5,684.5C 624.833,684.5 632.167,684.5 639.5,684.5 Z"/></g>
<g><path style="opacity:1" fill="#3ba866" d="M 180.5,698.5 C 180.5,693.5 180.5,688.5 180.5,683.5C 174.5,683.5 168.5,683.5 162.5,683.5C 162.5,684.5 162.5,685.5 162.5,686.5C 167.619,685.897 172.285,686.564 176.5,688.5C 171.595,687.555 166.595,687.221 161.5,687.5C 161.5,685.833 161.5,684.167 161.5,682.5C 168.167,682.5 174.833,682.5 181.5,682.5C 181.821,688.026 181.488,693.36 180.5,698.5 Z"/></g>
<g><path style="opacity:1" fill="#58b67e" d="M 781.5,685.5 C 781.5,691.833 781.5,698.167 781.5,704.5C 779.585,704.784 777.919,704.451 776.5,703.5C 777.833,703.5 779.167,703.5 780.5,703.5C 780.177,697.31 780.51,691.31 781.5,685.5 Z"/></g>
<g><path style="opacity:1" fill="#6ec090" d="M 450.5,702.5 C 451.919,703.451 453.585,703.784 455.5,703.5C 453.636,704.793 451.636,704.793 449.5,703.5C 449.624,702.893 449.957,702.56 450.5,702.5 Z"/></g>
<g><path style="opacity:1" fill="#69be8c" d="M 488.5,702.5 C 489.043,702.56 489.376,702.893 489.5,703.5C 487.364,704.793 485.364,704.793 483.5,703.5C 485.415,703.784 487.081,703.451 488.5,702.5 Z"/></g>
<g><path style="opacity:1" fill="#5cb881" d="M 613.5,662.5 C 613.5,676.167 613.5,689.833 613.5,703.5C 622.167,703.5 630.833,703.5 639.5,703.5C 630.682,704.493 621.682,704.827 612.5,704.5C 612.171,690.323 612.504,676.323 613.5,662.5 Z"/></g>
<g><path style="opacity:1" fill="#6abe8d" d="M 651.5,702.5 C 652.919,703.451 654.585,703.784 656.5,703.5C 654.636,704.793 652.636,704.793 650.5,703.5C 650.624,702.893 650.957,702.56 651.5,702.5 Z"/></g>
<g><path style="opacity:1" fill="#72c293" d="M 689.5,702.5 C 690.043,702.56 690.376,702.893 690.5,703.5C 688.364,704.793 686.364,704.793 684.5,703.5C 686.415,703.784 688.081,703.451 689.5,702.5 Z"/></g>
</svg>
